<mxfile host="Electron" agent="Mozilla/5.0 (Windows NT 10.0; Win64; x64) AppleWebKit/537.36 (KHTML, like Gecko) draw.io/25.0.2 Chrome/128.0.6613.186 Electron/32.2.5 Safari/537.36" version="25.0.2">
  <diagram name="第 1 页" id="ALFQ9I8qDVEw5P5s9t5u">
    <mxGraphModel dx="1036" dy="609" grid="1" gridSize="10" guides="1" tooltips="1" connect="1" arrows="1" fold="1" page="1" pageScale="1" pageWidth="827" pageHeight="1169" math="0" shadow="0">
      <root>
        <mxCell id="0" />
        <mxCell id="1" parent="0" />
        <mxCell id="IFZXX9UtQSLLzZPVh43S-1" value="&lt;div style=&quot;font-family: &amp;quot;JetBrainsMono Nerd Font&amp;quot;, Consolas, &amp;quot;Courier New&amp;quot;, monospace; font-weight: normal; line-height: 23px; white-space: pre;&quot;&gt;&lt;div style=&quot;&quot;&gt;&lt;div style=&quot;line-height: 23px;&quot;&gt;&lt;div style=&quot;&quot;&gt;&lt;font style=&quot;font-size: 14px;&quot;&gt;&lt;span style=&quot;background-color: rgb(255, 255, 255); color: rgb(0, 0, 255);&quot;&gt; &lt;/span&gt;&lt;span style=&quot;background-color: rgb(255, 255, 255);&quot;&gt;&lt;font color=&quot;#ababab&quot;&gt;1&lt;/font&gt;&lt;/span&gt;&lt;span style=&quot;background-color: rgb(255, 255, 255); color: rgb(0, 0, 255);&quot;&gt; char&lt;/span&gt;&lt;span style=&quot;background-color: rgb(255, 255, 255);&quot;&gt;* &lt;/span&gt;&lt;span style=&quot;color: rgb(121, 94, 38); background-color: rgb(255, 230, 204);&quot;&gt;ParseNanos&lt;/span&gt;&lt;span style=&quot;background-color: rgb(255, 255, 255);&quot;&gt;(&lt;/span&gt;&lt;span style=&quot;background-color: rgb(255, 255, 255); color: rgb(0, 0, 255);&quot;&gt;char&lt;/span&gt;&lt;span style=&quot;background-color: rgb(255, 255, 255);&quot;&gt;* &lt;/span&gt;&lt;span style=&quot;background-color: rgb(255, 255, 255); color: rgb(0, 16, 128);&quot;&gt;data&lt;/span&gt;&lt;span style=&quot;background-color: rgb(255, 255, 255);&quot;&gt;, int32* &lt;/span&gt;&lt;span style=&quot;color: rgb(0, 16, 128); background-color: rgb(213, 232, 212);&quot;&gt;nanos&lt;/span&gt;&lt;span style=&quot;background-color: rgb(255, 255, 255);&quot;&gt;) {&lt;/span&gt;&lt;/font&gt;&lt;/div&gt;&lt;div style=&quot;background-color: rgb(255, 255, 255);&quot;&gt;&lt;font style=&quot;font-size: 14px;&quot;&gt; &lt;font color=&quot;#ababab&quot;&gt;2&lt;/font&gt; &amp;nbsp; &lt;span style=&quot;color: #af00db;&quot;&gt;if&lt;/span&gt; (!&lt;span style=&quot;color: #795e26;&quot;&gt;ascii_isdigit&lt;/span&gt;(*data)) &lt;span style=&quot;color: #af00db;&quot;&gt;return&lt;/span&gt; nullptr;&lt;/font&gt;&lt;/div&gt;&lt;div style=&quot;&quot;&gt;&lt;font style=&quot;font-size: 14px;&quot;&gt;&lt;span style=&quot;background-color: rgb(255, 255, 255);&quot;&gt; &lt;font color=&quot;#ababab&quot;&gt;3&lt;/font&gt; &amp;nbsp; &lt;/span&gt;&lt;span style=&quot;background-color: rgb(255, 255, 255); color: rgb(0, 0, 255);&quot;&gt;int&lt;/span&gt;&lt;span style=&quot;background-color: rgb(255, 255, 255);&quot;&gt; value = &lt;/span&gt;&lt;span style=&quot;background-color: rgb(255, 255, 255); color: rgb(9, 134, 88);&quot;&gt;0&lt;/span&gt;&lt;span style=&quot;background-color: rgb(255, 255, 255);&quot;&gt;, len = &lt;/span&gt;&lt;span style=&quot;background-color: rgb(255, 255, 255); color: rgb(9, 134, 88);&quot;&gt;0&lt;/span&gt;&lt;span style=&quot;background-color: rgb(255, 255, 255);&quot;&gt;;&lt;/span&gt;&lt;/font&gt;&lt;/div&gt;&lt;div style=&quot;background-color: rgb(255, 255, 255); padding-top: 0px;&quot;&gt;&lt;font style=&quot;font-size: 14px;&quot;&gt; &lt;font color=&quot;#ababab&quot;&gt;4&lt;/font&gt; &amp;nbsp; &lt;span style=&quot;color: #af00db;&quot;&gt;while&lt;/span&gt; (&lt;span style=&quot;color: #795e26;&quot;&gt;ascii_isdigit&lt;/span&gt;(*data)) {&lt;/font&gt;&lt;/div&gt;&lt;div style=&quot;&quot;&gt;&lt;font style=&quot;font-size: 14px;&quot;&gt;&lt;span style=&quot;background-color: rgb(255, 255, 255);&quot;&gt; &lt;font color=&quot;#ababab&quot;&gt;5&lt;/font&gt; &amp;nbsp; &amp;nbsp; &lt;/span&gt;&lt;span style=&quot;background-color: rgb(255, 255, 255); color: rgb(175, 0, 219);&quot;&gt;if&lt;/span&gt;&lt;span style=&quot;background-color: rgb(255, 255, 255);&quot;&gt; (&lt;/span&gt;&lt;span style=&quot;background-color: rgb(245, 162, 158);&quot;&gt;len &amp;lt; &lt;span style=&quot;color: rgb(9, 134, 88);&quot;&gt;9&lt;/span&gt;&lt;/span&gt;&lt;span style=&quot;background-color: rgb(255, 255, 255);&quot;&gt;) &lt;/span&gt;&lt;span style=&quot;background-color: rgb(213, 232, 212);&quot;&gt;value = value * &lt;span style=&quot;color: rgb(9, 134, 88);&quot;&gt;10&lt;/span&gt; + *data -&lt;span style=&quot;color: rgb(163, 21, 21);&quot;&gt;&#39;0&#39;&lt;/span&gt;&lt;/span&gt;&lt;span style=&quot;background-color: rgb(255, 255, 255);&quot;&gt;;&lt;/span&gt;&lt;/font&gt;&lt;/div&gt;&lt;div style=&quot;background-color: rgb(255, 255, 255);&quot;&gt;&lt;font style=&quot;font-size: 14px;&quot;&gt; &lt;font color=&quot;#ababab&quot;&gt;6&lt;/font&gt; &amp;nbsp; &amp;nbsp; ++len; ++data;&lt;/font&gt;&lt;/div&gt;&lt;div style=&quot;background-color: rgb(255, 255, 255);&quot;&gt;&lt;font style=&quot;font-size: 14px;&quot;&gt; &lt;font color=&quot;#ababab&quot;&gt;7&lt;/font&gt; &amp;nbsp; }&lt;/font&gt;&lt;/div&gt;&lt;div style=&quot;background-color: rgb(255, 255, 255);&quot;&gt;&lt;font style=&quot;font-size: 14px;&quot;&gt; &lt;font color=&quot;#ababab&quot;&gt;8&lt;/font&gt; &amp;nbsp; &lt;span style=&quot;color: #af00db;&quot;&gt;while&lt;/span&gt; (len &amp;lt; &lt;span style=&quot;color: #098658;&quot;&gt;9&lt;/span&gt;) {&lt;/font&gt;&lt;/div&gt;&lt;div style=&quot;background-color: rgb(255, 255, 255);&quot;&gt;&lt;font style=&quot;font-size: 14px;&quot;&gt; &lt;font color=&quot;#ababab&quot;&gt;9&lt;/font&gt; &amp;nbsp; &amp;nbsp; value = value * &lt;span style=&quot;color: #098658;&quot;&gt;10&lt;/span&gt;; ++len;&lt;/font&gt;&lt;/div&gt;&lt;div style=&quot;background-color: rgb(255, 255, 255);&quot;&gt;&lt;font style=&quot;font-size: 14px;&quot;&gt;&lt;font color=&quot;#ababab&quot;&gt;10&lt;/font&gt; &amp;nbsp;}&lt;/font&gt;&lt;/div&gt;&lt;div style=&quot;&quot;&gt;&lt;font style=&quot;font-size: 14px;&quot;&gt;&lt;span style=&quot;background-color: rgb(255, 255, 255);&quot;&gt;&lt;font color=&quot;#ababab&quot;&gt;11&lt;/font&gt; &amp;nbsp; &lt;/span&gt;&lt;span style=&quot;background-color: rgb(213, 232, 212);&quot;&gt;*nanos = value&lt;/span&gt;&lt;span style=&quot;background-color: rgb(255, 255, 255);&quot;&gt;;&lt;/span&gt;&lt;/font&gt;&lt;/div&gt;&lt;div style=&quot;background-color: rgb(255, 255, 255);&quot;&gt;&lt;font style=&quot;font-size: 14px;&quot;&gt;&lt;font color=&quot;#ababab&quot;&gt;12&lt;/font&gt; &amp;nbsp; &lt;span style=&quot;color: #af00db;&quot;&gt;return&lt;/span&gt; data;&lt;/font&gt;&lt;/div&gt;&lt;div style=&quot;background-color: rgb(255, 255, 255);&quot;&gt;&lt;font style=&quot;font-size: 14px;&quot;&gt;&lt;font style=&quot;&quot; color=&quot;#ababab&quot;&gt;13&lt;/font&gt;}&lt;/font&gt;&lt;/div&gt;&lt;/div&gt;&lt;/div&gt;&lt;/div&gt;" style="text;whiteSpace=wrap;html=1;fillColor=default;" parent="1" vertex="1">
          <mxGeometry x="70" y="440" width="450" height="320" as="geometry" />
        </mxCell>
        <mxCell id="IFZXX9UtQSLLzZPVh43S-2" value="&lt;div style=&quot;font-family: &amp;quot;JetBrainsMono Nerd Font&amp;quot;, Consolas, &amp;quot;Courier New&amp;quot;, monospace; font-weight: normal; line-height: 23px; white-space: pre;&quot;&gt;&lt;div style=&quot;&quot;&gt;&lt;font style=&quot;font-size: 14px;&quot;&gt;&lt;span style=&quot;background-color: rgb(255, 255, 255);&quot;&gt;&lt;font style=&quot;&quot; color=&quot;#0000ff&quot;&gt;byte&lt;/font&gt;* &lt;/span&gt;&lt;span style=&quot;color: rgb(121, 94, 38); background-color: rgb(255, 230, 204);&quot;&gt;FUN_001127bc&lt;/span&gt;&lt;span style=&quot;color: rgb(0, 0, 0); background-color: rgb(255, 255, 255);&quot;&gt;(byte *&lt;/span&gt;&lt;span style=&quot;color: rgb(0, 16, 128); background-color: rgb(255, 255, 255);&quot;&gt;p1&lt;/span&gt;&lt;span style=&quot;color: rgb(0, 0, 0); background-color: rgb(255, 255, 255);&quot;&gt;,&lt;/span&gt;&lt;span style=&quot;color: rgb(0, 0, 255); background-color: rgb(255, 255, 255);&quot;&gt;int&lt;/span&gt;&lt;span style=&quot;color: rgb(0, 0, 0); background-color: rgb(255, 255, 255);&quot;&gt; *&lt;/span&gt;&lt;span style=&quot;color: rgb(0, 16, 128); background-color: rgb(213, 232, 212);&quot;&gt;p2&lt;/span&gt;&lt;span style=&quot;color: rgb(0, 0, 0); background-color: rgb(255, 255, 255);&quot;&gt;){&lt;/span&gt;&lt;/font&gt;&lt;/div&gt;&lt;div style=&quot;color: rgb(0, 0, 0); background-color: rgb(255, 255, 255);&quot;&gt;&lt;font style=&quot;font-size: 14px;&quot;&gt;&lt;span style=&quot;color: #000000;&quot;&gt;&amp;nbsp; &lt;/span&gt;&lt;span style=&quot;color: #af00db;&quot;&gt;do&lt;/span&gt;&lt;span style=&quot;color: #000000;&quot;&gt; {&lt;/span&gt;&lt;/font&gt;&lt;/div&gt;&lt;div style=&quot;color: rgb(0, 0, 0); background-color: rgb(255, 255, 255);&quot;&gt;&lt;span style=&quot;color: #000000;&quot;&gt;&lt;font style=&quot;font-size: 14px;&quot;&gt;&amp;nbsp; &amp;nbsp; uVar3 = uVar4;&lt;/font&gt;&lt;/span&gt;&lt;/div&gt;&lt;div style=&quot;color: rgb(0, 0, 0);&quot;&gt;&lt;font style=&quot;font-size: 14px;&quot;&gt;&lt;span style=&quot;color: rgb(0, 0, 0);&quot;&gt;&lt;span style=&quot;background-color: rgb(255, 255, 255);&quot;&gt;&amp;nbsp; &amp;nbsp; &lt;/span&gt;&lt;span style=&quot;background-color: rgb(213, 232, 212);&quot;&gt;iVar7 = uVar6 + iVar11 * &lt;/span&gt;&lt;/span&gt;&lt;span style=&quot;color: rgb(9, 134, 88); background-color: rgb(213, 232, 212);&quot;&gt;10&lt;/span&gt;&lt;span style=&quot;background-color: rgb(255, 255, 255); color: rgb(0, 0, 0);&quot;&gt;;&lt;/span&gt;&lt;/font&gt;&lt;/div&gt;&lt;div style=&quot;color: rgb(0, 0, 0); background-color: rgb(255, 255, 255);&quot;&gt;&lt;font style=&quot;font-size: 14px;&quot;&gt;&lt;span style=&quot;color: #000000;&quot;&gt;&amp;nbsp; &amp;nbsp; p1 = p1 + &lt;/span&gt;&lt;span style=&quot;color: #098658;&quot;&gt;1&lt;/span&gt;&lt;span style=&quot;color: #000000;&quot;&gt;;&lt;/span&gt;&lt;/font&gt;&lt;/div&gt;&lt;div style=&quot;color: rgb(0, 0, 0); background-color: rgb(255, 255, 255);&quot;&gt;&lt;font style=&quot;font-size: 14px;&quot;&gt;&lt;span style=&quot;color: #000000;&quot;&gt;&amp;nbsp; &amp;nbsp; uVar6 = (&lt;/span&gt;&lt;span style=&quot;color: #0000ff;&quot;&gt;uint&lt;/span&gt;&lt;span style=&quot;color: #000000;&quot;&gt;)*p1;&lt;/span&gt;&lt;/font&gt;&lt;/div&gt;&lt;div style=&quot;color: rgb(0, 0, 0); background-color: rgb(255, 255, 255);&quot;&gt;&lt;font style=&quot;font-size: 14px;&quot;&gt;&lt;span style=&quot;color: #000000;&quot;&gt;&amp;nbsp; &amp;nbsp; uVar4 = uVar3 + &lt;/span&gt;&lt;span style=&quot;color: #098658;&quot;&gt;1&lt;/span&gt;&lt;span style=&quot;color: #000000;&quot;&gt;;&lt;/span&gt;&lt;/font&gt;&lt;/div&gt;&lt;div style=&quot;color: rgb(0, 0, 0);&quot;&gt;&lt;font style=&quot;font-size: 14px;&quot;&gt;&lt;span style=&quot;color: rgb(0, 0, 0);&quot;&gt;&lt;span style=&quot;background-color: rgb(255, 255, 255);&quot;&gt;&amp;nbsp; &amp;nbsp; &lt;/span&gt;&lt;span style=&quot;background-color: rgb(213, 232, 212);&quot;&gt;iVar7 = iVar7 + -&lt;/span&gt;&lt;/span&gt;&lt;span style=&quot;color: rgb(9, 134, 88); background-color: rgb(213, 232, 212);&quot;&gt;0x30&lt;/span&gt;&lt;span style=&quot;background-color: rgb(255, 255, 255); color: rgb(0, 0, 0);&quot;&gt;;&lt;/span&gt;&lt;/font&gt;&lt;/div&gt;&lt;div style=&quot;color: rgb(0, 0, 0);&quot;&gt;&lt;font style=&quot;font-size: 14px;&quot;&gt;&lt;span style=&quot;background-color: rgb(255, 255, 255); color: rgb(0, 0, 0);&quot;&gt;&amp;nbsp; &amp;nbsp; &lt;/span&gt;&lt;span style=&quot;background-color: rgb(255, 255, 255); color: rgb(175, 0, 219);&quot;&gt;if&lt;/span&gt;&lt;span style=&quot;background-color: rgb(255, 255, 255); color: rgb(0, 0, 0);&quot;&gt; (&lt;/span&gt;&lt;span style=&quot;color: rgb(9, 134, 88); background-color: rgb(245, 162, 158);&quot;&gt;8&lt;/span&gt;&lt;span style=&quot;color: rgb(0, 0, 0);&quot;&gt;&lt;span style=&quot;background-color: rgb(245, 162, 158);&quot;&gt; &amp;lt; uVar3&lt;/span&gt;&lt;span style=&quot;background-color: rgb(255, 255, 255);&quot;&gt;) iVar7 = iVar11;&lt;/span&gt;&lt;/span&gt;&lt;/font&gt;&lt;/div&gt;&lt;div style=&quot;color: rgb(0, 0, 0); background-color: rgb(255, 255, 255);&quot;&gt;&lt;font style=&quot;font-size: 14px;&quot;&gt;&lt;span style=&quot;color: #000000;&quot;&gt;&amp;nbsp; &amp;nbsp; uVar5 = uVar5 - &lt;/span&gt;&lt;span style=&quot;color: #098658;&quot;&gt;1&lt;/span&gt;&lt;span style=&quot;color: #000000;&quot;&gt;;&lt;/span&gt;&lt;/font&gt;&lt;/div&gt;&lt;div style=&quot;color: rgb(0, 0, 0);&quot;&gt;&lt;span style=&quot;color: rgb(0, 0, 0);&quot;&gt;&lt;font style=&quot;font-size: 14px;&quot;&gt;&lt;span style=&quot;background-color: rgb(255, 255, 255);&quot;&gt;&amp;nbsp; &amp;nbsp; iVar11 = iVar7;&lt;/span&gt;&lt;/font&gt;&lt;/span&gt;&lt;/div&gt;&lt;div style=&quot;color: rgb(0, 0, 0); background-color: rgb(255, 255, 255);&quot;&gt;&lt;font style=&quot;font-size: 14px;&quot;&gt;&lt;span style=&quot;color: #000000;&quot;&gt;&amp;nbsp; } &lt;/span&gt;&lt;span style=&quot;color: #af00db;&quot;&gt;while&lt;/span&gt;&lt;span style=&quot;color: #000000;&quot;&gt; (uVar6 - &lt;/span&gt;&lt;span style=&quot;color: #098658;&quot;&gt;0x30&lt;/span&gt;&lt;span style=&quot;color: #000000;&quot;&gt; &amp;lt; &lt;/span&gt;&lt;span style=&quot;color: #098658;&quot;&gt;10&lt;/span&gt;&lt;span style=&quot;color: #000000;&quot;&gt;);&lt;/span&gt;&lt;/font&gt;&lt;/div&gt;&lt;div style=&quot;color: rgb(0, 0, 0); background-color: rgb(255, 255, 255);&quot;&gt;&lt;span style=&quot;color: rgb(0, 0, 0);&quot;&gt;&lt;font style=&quot;font-size: 14px;&quot;&gt;}&lt;/font&gt;&lt;/span&gt;&lt;/div&gt;&lt;/div&gt;" style="text;whiteSpace=wrap;html=1;fillColor=default;" parent="1" vertex="1">
          <mxGeometry x="510" y="440" width="410" height="320" as="geometry" />
        </mxCell>
      </root>
    </mxGraphModel>
  </diagram>
</mxfile>
